inDegrees=no
num_controls=7
num_derivatives=13
num_iterations=56
num_multipliers=7
num_parameters=0
num_slacks=7
num_states=26
objective=0.426088
objective_accelerations=0.060927
objective_balance=0.001394
objective_effort=0.015261
objective_height=0.342557
objective_ligament=0.005948
solver_duration=809.239750
status=Solve_Succeeded
success=true
DataType=double
version=3
OpenSimVersion=4.5
endheader
time	/jointset/ground_pelvis/pelvis_tilt/value	/jointset/ground_pelvis/pelvis_tx/value	/jointset/ground_pelvis/pelvis_ty/value	/jointset/hip_l/hip_flexion_l/value	/jointset/hip_l/hip_adduction_l/value	/jointset/hip_l/hip_rotation_l/value	/jointset/back/lumbar_extension/value	/jointset/patellofemoral_l/patellar_flexion_l/value	/jointset/knee_l/knee_flexion_l/value	/jointset/knee_l/knee_adduction_l/value	/jointset/knee_l/knee_rotation_l/value	/jointset/ankle_l/ankle_angle_l/value	/jointset/subtalar_l/subtalar_angle_l/value	/jointset/ground_pelvis/pelvis_tilt/speed	/jointset/ground_pelvis/pelvis_tx/speed	/jointset/ground_pelvis/pelvis_ty/speed	/jointset/hip_l/hip_flexion_l/speed	/jointset/hip_l/hip_adduction_l/speed	/jointset/hip_l/hip_rotation_l/speed	/jointset/back/lumbar_extension/speed	/jointset/patellofemoral_l/patellar_flexion_l/speed	/jointset/knee_l/knee_flexion_l/speed	/jointset/knee_l/knee_adduction_l/speed	/jointset/knee_l/knee_rotation_l/speed	/jointset/ankle_l/ankle_angle_l/speed	/jointset/subtalar_l/subtalar_angle_l/speed	/forceset/tau_hip_flexion_l	/forceset/tau_hip_adduction_l	/forceset/tau_hip_rotation_l	/forceset/tau_knee_flexion_l	/forceset/tau_ankle_angle_l	/forceset/tau_subtalar_angle_l	/forceset/tau_lumbar_extension	lambda_cid13_p0	lambda_cid13_p1	lambda_cid13_p2	lambda_cid13_p3	lambda_cid13_p4	lambda_cid13_p5	lambda_cid14_p0	/jointset/ground_pelvis/pelvis_tilt/accel	/jointset/ground_pelvis/pelvis_tx/accel	/jointset/ground_pelvis/pelvis_ty/accel	/jointset/hip_l/hip_flexion_l/accel	/jointset/hip_l/hip_adduction_l/accel	/jointset/hip_l/hip_rotation_l/accel	/jointset/back/lumbar_extension/accel	/jointset/patellofemoral_l/patellar_flexion_l/accel	/jointset/knee_l/knee_flexion_l/accel	/jointset/knee_l/knee_adduction_l/accel	/jointset/knee_l/knee_rotation_l/accel	/jointset/ankle_l/ankle_angle_l/accel	/jointset/subtalar_l/subtalar_angle_l/accel	gamma_cid13_p0	gamma_cid13_p1	gamma_cid13_p2	gamma_cid13_p3	gamma_cid13_p4	gamma_cid13_p5	gamma_cid14_p0
0	0.04771355641113408	0.1082165441458442	0.9028548413635796	0.1266922784136757	-0.3701555967656694	-0.2268285897135598	-0.2144969558742783	0.2051545070141951	0.2051545070141877	-0.174511283358995	-0.1619618219216648	0.09024313228550125	0.0789241997141534	0	0	0	0	0	0	0	0	0	0	0	0	0	0.113742177062846	-0.05138568554159039	-0.01020255864233224	-0.2479019241726747	0.1867559330505752	-0.09400858957185376	-0.04693426506799057	28.77112433636181	36.70503514574767	-7.177627162222056	-19.88833688330956	-439.994163111068	-43.32644638363342	-26.30948229336088	-3.478256691519302	-1.046705921847362	-0.845971592882927	11.63907361740538	0.01565214321278209	3.25378069355524	-3.330484405211252	10.7037922145412	10.70379221454296	2.668597380344805	-0.8371968968599408	3.622614085259218	1.06408782962587	5.208237242361314e-09	7.220946148107793e-07	-2.351780231295024e-07	7.818988079454669e-08	-4.913568088476567e-08	4.334070703380511e-07	1.025421737791426e-07
0.01	0.04754714771682193	0.1081630503261239	0.9028137100040216	0.1272607352488022	-0.3701541962024597	-0.2266586207966784	-0.2146718266617741	0.2056767395702383	0.2056767395702348	-0.1743804318781724	-0.1619918492135501	0.09041789776027793	0.07897607291794428	-0.03319961204064257	-0.0108427489915671	-0.008215455616357609	0.1135065882888677	0.0002390283044491876	0.03388048004465994	-0.03511141300997298	0.1039896079423479	0.1039896079423356	0.02595623823449194	-0.005967353676150913	0.03452560452960516	0.01020510994327196	0.1105406332530956	-0.06095929513826852	-0.008981872135262588	-0.2410146034431109	0.1715364954844905	-0.08169454754096568	-0.04504541506783314	24.51091065364658	31.64060676694065	-5.842076517851667	-16.13253733981121	-440.4161197036181	-53.42363680644651	-26.30923660274856	-3.228490731236466	-1.124641507479762	-0.8077199288296374	11.17873638852785	0.021804537943102	3.438241354544352	-3.622058075301473	10.17798908561182	10.17798908560853	2.527118696233004	-0.470842578008735	3.303428240202209	0.9732075892892588	5.396053364303319e-09	9.184092217333028e-07	-1.820534714336462e-07	9.913182471243752e-08	-1.99800470411655e-07	3.792323635980352e-07	1.310299769203373e-07
0.02	0.0470512074479212	0.1079968125925534	0.9026907466117359	0.1289587149576024	-0.3701516500834311	-0.2261532351404286	-0.2152019292446489	0.2072251570060226	0.2072251570060203	-0.1739964216847511	-0.1620804176371783	0.09092509820102766	0.0791248942236903	-0.06590631491726238	-0.0225487827700135	-0.01636640654548047	0.2259045747337393	0.0002291111641832781	0.06708334787424067	-0.07104635907636948	0.2052369759459063	0.2052369759458621	0.05063174251825256	-0.01170822635294709	0.0664869931948508	0.01938962039100096	0.1073390894434542	-0.07053290473493903	-0.007761185628310986	-0.2341272827134867	0.1563170579184243	-0.06938050551006196	-0.04315656506758255	20.29898454999242	26.58220147190358	-4.524026669627673	-12.42093404432707	-439.9626778191695	-63.32902915686689	-26.30829932451549	-3.379674858714579	-1.219362879223409	-0.8330706554359688	11.41735324860625	-0.03413694573021919	3.118258250539383	-3.495191016495863	10.15534422678335	10.15534422678118	2.412450590198581	-0.7919006969890238	3.109770912387098	0.8599679305172304	5.583869486245324e-09	1.114723828655826e-06	-1.289289197377899e-07	1.200737686303284e-07	-3.504652599385442e-07	3.250576568580193e-07	1.595177800615321e-07
0.03	0.04623154930575516	0.1077113978153431	0.9024864400727641	0.1317717409461096	-0.3701500518699179	-0.2253210385969922	-0.2160894837582998	0.2097731985992884	0.2097731985993112	-0.1733711591548492	-0.1622266551889998	0.09174250640701553	0.07936196530212518	-0.09780739790678802	-0.03445680368069812	-0.02449230523335781	0.3360961834094457	8.610576098073806e-05	0.09923726588580718	-0.1060508798201191	0.3039288055056212	0.3039288055055316	0.0742645546681048	-0.01744987703624328	0.09689221469017574	0.02799504978765111	0.1024239175262193	-0.06503964407418206	-0.006686715904487958	-0.2284721209333475	0.1497611136404198	-0.07119187256516141	-0.03934137381936711	18.11041370407262	27.58538749742797	-4.493556470688422	-11.24795370982594	-439.704427147058	-60.30658094844503	-26.3063814422922	-3.062626657346843	-1.164892249456833	-0.8020307749143021	10.72940307942977	-0.005196608007914235	3.246206948269013	-3.441033027987825	9.659689720900861	9.659689720895438	2.315442177124529	-0.451932992144097	2.990569060027212	0.8562378247460052	-4.259120840249388e-10	1.281119342421316e-06	-1.23352858023792e-07	1.442379592615209e-07	-4.840804412384164e-07	3.514713199840452e-07	1.826877203257876e-07
0.04	0.04509942000603771	0.1073092287185321	0.902200938287024	0.1356685507018418	-0.3701500465645154	-0.2241708531990767	-0.2173146735643238	0.2132948759682754	0.2132948759682666	-0.1725142193734825	-0.1624276363951854	0.09286090108633994	0.07968417215062808	-0.1284005464273252	-0.04589964669015878	-0.03260545589920815	0.4426613281802154	-8.947045792884588e-05	0.1306811187695299	-0.1385734175507797	0.3999641310787529	0.3999641310786332	0.09696719280779806	-0.02265695724531297	0.1266842878623804	0.03641677440458434	0.09750874560892947	-0.05954638341342665	-0.005612246181190157	-0.2228169591531262	0.1432051693624281	-0.07300323962025179	-0.03552618257120738	15.96542674748822	28.5971333552027	-4.482947678499478	-10.10776984963646	-438.6417600392415	-57.09785867592145	-26.30269692479746	-3.118087964916727	-1.126327298978804	-0.8305210510305603	10.692060467619	-0.04065110887160449	2.976245224970602	-2.998794413877971	9.624043429466756	9.624043429467621	2.226415788166844	-0.6849866021437586	2.987141247762821	0.8232269745738051	-6.563479173722261e-09	1.446897967668104e-06	-1.187571775465333e-07	1.684685879692765e-07	-6.173440842243295e-07	3.795465989835978e-07	2.057480139327866e-07
0.05	0.04366603787441777	0.1067943632191597	0.9018340804960536	0.1406156128081813	-0.3701515683982017	-0.2227114663875217	-0.2188541150570596	0.2177635511627413	0.2177635511627511	-0.1714343013351858	-0.162679266267083	0.09427304919043501	0.08008981790944243	-0.1581872541035085	-0.05705286740227427	-0.04078284711634698	0.5463159490640666	-0.000176299869893063	0.1610372139209785	-0.1691026661196017	0.4932338584972676	0.4932338584972831	0.1189035162427363	-0.0275509893901778	0.1555102931810632	0.04469249830656557	0.09409804734230993	-0.05778017137335988	-0.00468887412111457	-0.2194745016080338	0.1377180537485371	-0.07175449074554245	-0.03303893258177041	14.29807810568734	28.24072620643158	-4.305029579150357	-8.957022139367046	-438.0208232074221	-57.00434329588972	-26.29634077588394	-2.895651090992122	-1.106697701040229	-0.813984425948983	10.13689741414677	0.01289262774100737	3.041498829593599	-3.048157846601484	9.097838664180623	9.097838664201216	2.160539877426087	-0.3739591034581462	2.795121646317476	0.8265488977081903	-8.346338112117547e-09	1.397930217105518e-06	-1.617135451033345e-07	1.722958831053315e-07	-6.734125109078234e-07	4.026636094880836e-07	2.076417816516152e-07
